<svg width="52" height="39" viewBox="0 0 52 39" fill="none" xmlns="http://www.w3.org/2000/svg">
<path d="M15.2118 27.0648L14.0417 31.8409L12.4815 33.4329H24.963L23.4028 31.8409L22.2326 27.0648M4.68063 20.6966H32.7638M7.80099 27.0648H29.6435C31.3668 27.0648 32.7638 25.6392 32.7638 23.8807V7.96021C32.7638 6.20169 31.3668 4.77612 29.6435 4.77612H7.80099C6.07766 4.77612 4.68063 6.20169 4.68063 7.96021V23.8807C4.68063 25.6392 6.07766 27.0648 7.80099 27.0648Z" stroke="white" stroke-width="2" stroke-linecap="round" stroke-linejoin="round"/>
<path d="M40.848 30.3936H40.8565M37.4439 32.9988H44.252C45.192 32.9988 45.954 32.2212 45.954 31.262V19.1046C45.954 18.1454 45.192 17.3678 44.252 17.3678H37.4439C36.5039 17.3678 35.7419 18.1454 35.7419 19.1046V31.262C35.7419 32.2212 36.5039 32.9988 37.4439 32.9988Z" stroke="white" stroke-width="2" stroke-linecap="round" stroke-linejoin="round"/>
</svg>
