<svg width="50" height="50" viewBox="0 0 50 50" fill="none" xmlns="http://www.w3.org/2000/svg">
<path d="M35.8189 19.9062C33.1855 8.28125 26.9605 4.46042 26.2918 3C25.7085 2.17917 25.1876 1.0125 24.7605 0C24.6855 1.03125 24.646 1.42708 23.671 2.46667C22.1647 3.64583 14.4251 10.1375 13.796 23.3417C13.2085 35.6583 22.6918 42.9979 23.9793 43.9333L24.1251 44.0375C24.393 46.0204 24.6222 48.0082 24.8126 50H25.8147C26.0541 47.8506 26.4088 45.7156 26.8772 43.6042C27.746 42.9875 28.1355 42.6396 28.648 42.1604C31.0752 39.9154 33.0042 37.1858 34.3101 34.1484C35.616 31.1109 36.2698 27.8331 36.2293 24.5271C36.2501 22.8312 36.0147 21.0646 35.8189 19.9062ZM24.7022 36.9792C24.7022 36.9792 24.7022 19.7062 25.2751 19.7083C25.7189 19.7083 26.296 41.9896 26.296 41.9896C25.5022 41.8958 24.7022 38.3229 24.7022 36.9792Z" fill="#BBADFF"/>
</svg>
