<svg width="50" height="50" viewBox="0 0 50 50" fill="none" xmlns="http://www.w3.org/2000/svg">
<g clip-path="url(#clip0_609_4474)">
<path d="M25 0C11.2109 0 0 11.2109 0 25C0 38.7891 11.2109 50 25 50C38.7891 50 50 38.7891 50 25C50 11.2109 38.7891 0 25 0ZM37.7734 44.6875L18.9062 16.3281H16.25V35.8984H18.9062V21.6016L36.1719 45.625C32.8516 47.4219 29.0625 48.4375 25 48.4375C12.0312 48.4766 1.52344 37.9688 1.52344 25C1.52344 12.0312 12.0312 1.52344 25 1.52344C37.9688 1.52344 48.4766 12.0312 48.4766 25C48.4766 33.2422 44.2188 40.5078 37.7734 44.6875Z" fill="#BBADFF"/>
<path d="M30.7031 28.6328L33.6328 33.0469V16.3281H30.7031V28.6328Z" fill="#BBADFF"/>
</g>
<defs>
<clipPath id="clip0_609_4474">
<rect width="50" height="50" fill="white"/>
</clipPath>
</defs>
</svg>
