<svg width="50" height="50" viewBox="0 0 50 50" fill="none" xmlns="http://www.w3.org/2000/svg">
<path d="M32.6272 32.3938C33.3322 32.325 33.9831 31.9858 34.4434 31.4475C34.9037 30.9091 35.1375 30.2134 35.096 29.5063C35.0634 28.7801 34.7537 28.094 34.2304 27.5894C33.7072 27.0847 33.0104 26.8 32.2835 26.7938H32.1835C31.4378 26.8204 30.7331 27.1418 30.2241 27.6875C29.7152 28.2331 29.4436 28.9585 29.4689 29.7042C29.5189 30.4938 29.8418 31.1354 30.2835 31.6021C28.5605 34.9542 25.9709 37.423 22.0459 39.4938C19.4085 40.875 16.621 41.3938 13.9105 41.023C11.6418 40.7042 9.86887 39.6896 8.77928 38.0625C7.15428 35.5938 7.00428 32.9334 8.36053 30.2709C9.18771 28.6824 10.3697 27.3059 11.8147 26.248C11.5174 25.4219 11.2868 24.5734 11.1251 23.7104C3.82095 28.9396 4.56678 36.0896 6.78345 39.4688C8.43762 41.9355 11.8147 43.5125 15.5126 43.5125C16.5001 43.5125 17.5376 43.4396 18.548 43.1917C24.9585 41.9584 29.8168 38.1125 32.6043 32.4417L32.6272 32.3938Z" fill="#BBADFF"/>
<path d="M41.4312 26.2273C37.6104 21.7398 31.9875 19.2752 25.575 19.2752H24.7354C24.3187 18.3627 23.3583 17.7939 22.2708 17.7939H22.1958C20.6458 17.7939 19.4354 19.1273 19.4854 20.6794C19.5333 22.1585 20.7916 23.3919 22.2979 23.3919H22.4208C22.954 23.3717 23.47 23.1982 23.9071 22.8923C24.3442 22.5864 24.6839 22.1609 24.8854 21.6669H25.8C29.6 21.6669 33.1979 22.7752 36.4791 24.946C38.9916 26.596 40.7958 28.7669 41.8062 31.3564C42.6916 33.4794 42.6437 35.5502 41.7333 37.2794C40.327 39.9919 37.9583 41.421 34.8291 41.421C32.8562 41.421 30.9312 40.8044 29.9437 40.3606C29.3541 40.8502 28.3645 41.6648 27.6479 42.1585C29.8187 43.1439 32.0146 43.7127 34.1333 43.7127C38.9437 43.7127 42.5145 41.0002 43.875 38.3856C45.352 35.4231 45.2312 30.4419 41.4562 26.1794L41.4312 26.2273Z" fill="#BBADFF"/>
<path d="M15.9312 33.2812C15.9791 34.7604 17.2353 35.9937 18.7437 35.9937H18.8437C19.2143 35.9853 19.5795 35.9027 19.9177 35.751C20.256 35.5992 20.5605 35.3813 20.8132 35.1101C21.066 34.8389 21.2619 34.5199 21.3895 34.1718C21.5171 33.8237 21.5738 33.4536 21.5562 33.0833C21.5562 31.6042 20.2728 30.3729 18.7687 30.3729H18.6687C18.5687 30.3729 18.4228 30.3729 18.2978 30.4187C16.252 26.9667 15.3874 23.2646 15.7103 19.275C15.9062 16.2646 16.8916 13.65 18.6687 11.4792C20.1478 9.62917 22.9353 8.71667 24.8353 8.66667C30.1603 8.56667 32.3812 15.2042 32.552 17.8417L35.0187 18.5792C34.4499 10.4917 29.4208 6.25 24.6103 6.25C20.0978 6.25 15.9312 9.52917 14.2541 14.3417C11.9583 20.7521 13.4645 26.9167 16.277 31.85C16.0312 32.1708 15.8833 32.7375 15.9312 33.2812Z" fill="#BBADFF"/>
</svg>
