<svg width="50" height="50" viewBox="0 0 50 50" fill="none" xmlns="http://www.w3.org/2000/svg">
<path d="M25 4.1665C36.5041 4.1665 45.8333 13.4957 45.8333 24.9998C45.8333 36.504 36.5041 45.8332 25 45.8332C13.4958 45.8332 4.16663 36.504 4.16663 24.9998C4.16663 13.4957 13.4958 4.1665 25 4.1665ZM20.8604 31.9415C21.1645 33.0603 21.1312 34.1061 20.8166 35.0519L20.7041 35.3644C20.441 35.9944 20.0694 36.5733 19.6062 37.0748C18.3937 38.3936 16.702 38.8915 15.977 38.4728C15.1958 38.0165 15.5854 36.1561 16.9916 34.6707C18.5041 33.0769 20.6708 32.0498 20.6708 32.0498V32.0457L20.8604 31.9415ZM38.0645 13.0853C37.1229 9.38317 30.9875 8.16442 25.1791 10.229C21.7291 11.4561 17.9854 13.3853 15.2979 15.9019C12.0979 18.8894 11.5895 21.4936 11.7979 22.5811C12.5375 26.4207 17.8 28.9311 19.9645 30.7936V30.804C19.325 31.1144 14.6562 33.4582 13.5645 35.8832C12.3916 38.4353 13.7479 40.2603 14.6333 40.4915C17.3687 41.2478 20.1791 39.8665 21.6916 37.629C23.1479 35.4394 23.0208 32.629 22.3937 31.2478C23.2541 31.0144 24.2666 30.9103 25.5687 31.0686C29.2166 31.4832 29.9458 33.7769 29.7854 34.7144C29.6312 35.6498 28.877 36.1957 28.6166 36.3519C28.3541 36.5103 28.277 36.5623 28.302 36.6665C28.3291 36.8207 28.4604 36.8207 28.6666 36.7978C28.9541 36.7457 30.5708 36.0165 30.6479 34.2415C30.725 32.004 28.5895 29.5061 24.7875 29.554C23.225 29.5832 22.2333 29.7123 21.5312 29.9998C21.4838 29.9264 21.4213 29.8639 21.3479 29.8165C19.0041 27.2894 14.6541 25.5186 14.8375 22.1603C14.8895 20.9353 15.3312 17.7082 23.1708 13.8019C29.6041 10.5978 34.7354 11.4853 35.6229 13.4373C36.8937 16.2207 32.8854 21.4061 26.1937 22.1603C23.6416 22.4478 22.3145 21.4582 21.9729 21.0915C21.6104 20.6998 21.5604 20.6748 21.4291 20.7561C21.2187 20.8603 21.35 21.1978 21.4291 21.4082C21.6375 21.9269 22.4437 22.8415 23.852 23.3082C25.075 23.6998 28.0687 23.9311 31.6645 22.5269C35.7 20.9665 38.85 16.6144 37.9395 12.9686L38.0645 13.0853Z" fill="#BBADFF"/>
</svg>
