<svg width="50" height="50" viewBox="0 0 50 50" fill="none" xmlns="http://www.w3.org/2000/svg">
<path d="M37.2298 12.8795C38.5607 13.1868 39.7699 13.8836 40.7032 14.8811C41.2163 15.4214 41.6632 16.0209 42.0344 16.667C42.0516 16.7373 39.6376 18.3592 38.1735 19.2639C38.1204 19.2998 37.9094 19.0701 37.6704 18.717C37.4034 18.2569 37.0239 17.8721 36.5675 17.5988C36.111 17.3255 35.5927 17.1726 35.061 17.1545C33.3782 17.0389 32.2938 17.9201 32.3016 19.3936C32.2871 19.7556 32.3696 20.1149 32.5407 20.4342C32.911 21.1998 33.5985 21.6592 35.7579 22.5951C39.7329 24.3061 41.4391 25.4342 42.4923 27.0373C43.0873 28.0503 43.4538 29.1811 43.5661 30.3506C43.6784 31.5201 43.5337 32.6999 43.1423 33.8076C42.6045 35.0228 41.751 36.0716 40.6705 36.8452C39.5901 37.6187 38.3221 38.0886 36.9985 38.2061C35.5917 38.3658 34.1705 38.3511 32.7673 38.1623C30.618 37.8093 28.6381 36.7777 27.1173 35.2186C26.5429 34.5712 26.0564 33.8509 25.6704 33.0764C25.8335 32.9572 26.0042 32.8486 26.1813 32.7514C26.4282 32.6108 27.3626 32.0733 28.2438 31.5623L29.8438 30.6248L30.1782 31.1123C30.7423 31.9169 31.459 32.6028 32.2876 33.1311C33.1251 33.5905 34.0738 33.8082 35.0279 33.7599C35.9819 33.7116 36.9038 33.3992 37.6907 32.8576C38.0966 32.462 38.3503 31.9362 38.4075 31.3722C38.4646 30.8083 38.3215 30.2423 38.0032 29.7733C37.5719 29.1561 36.6907 28.6373 34.186 27.5514C32.222 26.8891 30.4332 25.7915 28.9532 24.3405C28.2489 23.5369 27.7285 22.5893 27.4282 21.5639C27.2062 20.3955 27.1734 19.1989 27.3313 18.0201C27.6249 16.6634 28.3287 15.4299 29.3473 14.4868C30.3658 13.5437 31.6498 12.9368 33.0251 12.7483C34.4253 12.5809 35.8427 12.6252 37.2298 12.8795ZM24.1938 15.1967L24.211 17.4686H16.9766V38.0123H11.8751V17.4733H4.64069V15.242C4.62149 14.4779 4.64235 13.7133 4.70319 12.9514C4.72975 12.9154 9.12819 12.8983 14.461 12.9076L24.1657 12.9342L24.1938 15.1967Z" fill="#BBADFF"/>
</svg>
