<svg width="22" height="22" viewBox="0 0 22 22" fill="none" xmlns="http://www.w3.org/2000/svg">
<path d="M4.25745 4.40039H18.8325C20.2075 4.40039 20.9005 5.04939 20.9005 6.36939V15.6314C20.9005 16.9404 20.2075 17.6004 18.8325 17.6004H4.25745C2.88245 17.6004 2.18945 16.9404 2.18945 15.6314V6.36939C2.18945 5.04939 2.88245 4.40039 4.25745 4.40039ZM11.5395 13.8604L18.9535 7.77739C19.2175 7.55739 19.4265 7.05139 19.0965 6.60039C18.7775 6.14939 18.1945 6.13839 17.8095 6.41339L11.5395 10.6594L5.28045 6.41339C4.89545 6.13839 4.31245 6.14939 3.99345 6.60039C3.66345 7.05139 3.87245 7.55739 4.13645 7.77739L11.5395 13.8604Z" fill="#D0CFCF"/>
</svg>
