<svg width="22" height="22" viewBox="0 0 22 22" fill="none" xmlns="http://www.w3.org/2000/svg">
<g clip-path="url(#clip0_554_1849)">
<path d="M9.67536 5.71962L6.57428 2.14004C6.21678 1.72754 5.56136 1.72937 5.14611 2.14554L2.59595 4.70029C1.83695 5.4602 1.6197 6.58862 2.05878 7.49337C4.68193 12.9246 9.06216 17.311 14.4897 19.9417C15.3935 20.3808 16.521 20.1635 17.28 19.4036L19.854 16.825C20.2711 16.408 20.272 15.7489 19.8559 15.3914L16.2625 12.3068C15.8867 11.9841 15.3028 12.0263 14.926 12.404L13.6757 13.6561C13.6117 13.7232 13.5274 13.7674 13.4359 13.782C13.3443 13.7966 13.2505 13.7807 13.1688 13.7368C11.125 12.5599 9.42969 10.8623 8.25545 8.81704C8.21147 8.73523 8.19555 8.64125 8.21012 8.54951C8.22469 8.45778 8.26895 8.37336 8.33611 8.3092L9.58278 7.06162C9.96045 6.68212 10.0017 6.09637 9.67536 5.71962Z" stroke="#D0CFCF" stroke-width="2" stroke-linecap="round" stroke-linejoin="round"/>
</g>
<defs>
<clipPath id="clip0_554_1849">
<rect width="22" height="22" fill="white"/>
</clipPath>
</defs>
</svg>
