<svg width="32" height="32" viewBox="0 0 32 32" fill="none" xmlns="http://www.w3.org/2000/svg">
<path d="M6.19196 6.3999H27.392C29.392 6.3999 30.4 7.3439 30.4 9.2639V22.7359C30.4 24.6399 29.392 25.5999 27.392 25.5999H6.19196C4.19196 25.5999 3.18396 24.6399 3.18396 22.7359V9.2639C3.18396 7.3439 4.19196 6.3999 6.19196 6.3999ZM16.784 20.1599L27.568 11.3119C27.952 10.9919 28.256 10.2559 27.776 9.5999C27.312 8.9439 26.464 8.9279 25.904 9.3279L16.784 15.5039L7.67996 9.3279C7.11996 8.9279 6.27196 8.9439 5.80796 9.5999C5.32796 10.2559 5.63196 10.9919 6.01596 11.3119L16.784 20.1599Z" fill="#D0CFCF"/>
</svg>
