<svg width="32" height="32" viewBox="0 0 32 32" fill="none" xmlns="http://www.w3.org/2000/svg">
<path d="M14.072 8.3202L9.56136 3.11354C9.04136 2.51354 8.08802 2.5162 7.48402 3.12154L3.77469 6.83754C2.67069 7.94287 2.35469 9.5842 2.99336 10.9002C6.80885 18.8002 13.1801 25.1803 21.0747 29.0069C22.3894 29.6455 24.0294 29.3295 25.1334 28.2242L28.8774 24.4735C29.484 23.8669 29.4854 22.9082 28.88 22.3882L23.6534 17.9015C23.1067 17.4322 22.2574 17.4935 21.7094 18.0429L19.8907 19.8642C19.7976 19.9618 19.675 20.0261 19.5418 20.0473C19.4086 20.0685 19.2722 20.0454 19.1534 19.9815C16.1806 18.2697 13.7147 15.8005 12.0067 12.8255C11.9427 12.7065 11.9196 12.5698 11.9408 12.4364C11.962 12.303 12.0263 12.1802 12.124 12.0869L13.9374 10.2722C14.4867 9.7202 14.5467 8.8682 14.072 8.3202Z" fill="#D0CFCF"/>
</svg>
