<svg width="64" height="64" viewBox="0 0 64 64" fill="none" xmlns="http://www.w3.org/2000/svg">
<g clip-path="url(#clip0_105_300)">
<path d="M48.9707 15.0296L45.2 18.8002C42.1464 15.7464 38.1285 13.8457 33.8307 13.4222C29.5329 12.9987 25.2212 14.0785 21.6302 16.4775C18.0393 18.8766 15.3913 22.4466 14.1374 26.5792C12.8836 30.7118 13.1014 35.1513 14.7538 39.1413C16.4062 43.1312 19.391 46.4248 23.1995 48.4609C27.0081 50.4969 31.4048 51.1494 35.6405 50.3071C39.8762 49.4649 43.6888 47.1801 46.4287 43.8419C49.1686 40.5038 50.6664 36.3189 50.6667 32.0002H56C56 37.5528 54.0746 42.9335 50.5521 47.2256C47.0296 51.5178 42.1278 54.4557 36.682 55.5389C31.2361 56.6221 25.5832 55.7835 20.6863 53.1661C15.7895 50.5486 11.9517 46.3142 9.82683 41.1843C7.70201 36.0544 7.42164 30.3465 9.03349 25.033C10.6453 19.7196 14.0497 15.1295 18.6665 12.0447C23.2832 8.95989 28.8268 7.57134 34.3526 8.11562C39.8784 8.6599 45.0445 11.1033 48.9707 15.0296Z" fill="white"/>
</g>
<defs>
<clipPath id="clip0_105_300">
<rect width="64" height="64" fill="white"/>
</clipPath>
</defs>
</svg>
