<svg width="44" height="44" viewBox="0 0 44 44" fill="none" xmlns="http://www.w3.org/2000/svg">
<path d="M19.349 11.4402L13.1468 4.28105C12.4318 3.45605 11.121 3.45972 10.2905 4.29205L5.19016 9.40155C3.67216 10.9214 3.23765 13.1782 4.11582 14.9877C9.36212 25.8502 18.1226 34.6229 28.9777 39.8844C30.7853 40.7625 33.0403 40.328 34.5583 38.8082L39.7063 33.651C40.5405 32.8169 40.5423 31.4987 39.71 30.7837L32.5233 24.6145C31.7717 23.9692 30.6038 24.0535 29.8503 24.8089L27.3497 27.3132C27.2216 27.4474 27.0531 27.5358 26.87 27.565C26.6868 27.5941 26.4992 27.5624 26.3358 27.4745C22.2483 25.1207 18.8576 21.7256 16.5092 17.6351C16.4212 17.4714 16.3894 17.2835 16.4185 17.1C16.4476 16.9165 16.5362 16.7477 16.6705 16.6194L19.1638 14.1242C19.9192 13.3652 20.0017 12.1937 19.349 11.4402Z" stroke="#D0CFCF" stroke-width="2" stroke-linecap="round" stroke-linejoin="round"/>
</svg>
