<svg width="44" height="44" viewBox="0 0 44 44" fill="none" xmlns="http://www.w3.org/2000/svg">
<path d="M8.51399 8.7998H37.664C40.414 8.7998 41.8 10.0978 41.8 12.7378V31.2618C41.8 33.8798 40.414 35.1998 37.664 35.1998H8.51399C5.76399 35.1998 4.37799 33.8798 4.37799 31.2618V12.7378C4.37799 10.0978 5.76399 8.7998 8.51399 8.7998ZM23.078 27.7198L37.906 15.5538C38.434 15.1138 38.852 14.1018 38.192 13.1998C37.554 12.2978 36.388 12.2758 35.618 12.8258L23.078 21.3178L10.56 12.8258C9.78999 12.2758 8.62399 12.2978 7.98599 13.1998C7.32599 14.1018 7.74399 15.1138 8.27199 15.5538L23.078 27.7198Z" fill="#D0CFCF"/>
</svg>
