<svg width="44" height="44" viewBox="0 0 44 44" fill="none" xmlns="http://www.w3.org/2000/svg">
<path d="M23.5557 5.04437C22.6965 4.18521 21.3035 4.18521 20.4444 5.04437L5.04439 20.4444C4.18524 21.3035 4.18524 22.6965 5.04439 23.5556C5.90354 24.4148 7.29651 24.4148 8.15566 23.5556L8.80002 22.9113V37.4C8.80002 38.615 9.785 39.6 11 39.6H15.4C16.6151 39.6 17.6 38.615 17.6 37.4V33C17.6 31.785 18.585 30.8 19.8 30.8H24.2C25.4151 30.8 26.4 31.785 26.4 33V37.4C26.4 38.615 27.385 39.6 28.6 39.6H33C34.2151 39.6 35.2 38.615 35.2 37.4V22.9113L35.8444 23.5556C36.7035 24.4148 38.0965 24.4148 38.9557 23.5556C39.8148 22.6965 39.8148 21.3035 38.9557 20.4444L23.5557 5.04437Z" fill="#C2C2C2"/>
</svg>
